<?xml version="1.0" standalone="no"?>
<!DOCTYPE svg PUBLIC "-//W3C//DTD SVG 20010904//EN"
 "http://www.w3.org/TR/2001/REC-SVG-20010904/DTD/svg10.dtd">
<svg version="1.0" xmlns="http://www.w3.org/2000/svg"
 width="776.000000pt" height="762.000000pt" viewBox="0 0 776.000000 762.000000"
 preserveAspectRatio="xMidYMid meet">
<metadata>
Created by potrace 1.16, written by Peter Selinger 2001-2019
</metadata>
<g transform="translate(0.000000,762.000000) scale(0.100000,-0.100000)"
fill="#000000" stroke="none">
<path d="M0 3810 l0 -3810 3880 0 3880 0 0 3810 0 3810 -3880 0 -3880 0 0
-3810z m4273 2096 c56 -38 57 -46 57 -401 l0 -325 -34 -38 -34 -37 -1144 -3
c-1132 -2 -1143 -2 -1176 18 -59 36 -62 56 -62 390 0 317 3 344 48 383 11 10
33 22 48 27 16 5 533 8 1149 7 1082 -2 1121 -3 1148 -21z m1634 -2 c62 -45 64
-57 61 -404 -3 -290 -4 -317 -22 -343 -38 -56 -47 -57 -386 -57 -344 0 -353 1
-390 63 -19 30 -20 52 -20 344 0 171 4 323 9 336 13 34 49 66 86 77 16 5 166
8 332 7 288 -2 303 -3 330 -23z m4 -1657 c54 -36 58 -60 58 -387 0 -327 -4
-351 -58 -387 l-34 -23 -1957 0 -1957 0 -27 21 c-55 43 -56 52 -56 389 0 337
1 346 56 389 l27 21 1957 0 1957 0 34 -23z m-2455 -1647 c61 -38 65 -66 62
-411 -3 -334 -4 -336 -65 -376 -25 -17 -76 -18 -754 -18 -720 0 -728 0 -756
21 -61 44 -63 59 -63 392 0 336 3 356 62 392 32 19 48 20 757 20 711 0 724 0
757 -20z m2449 0 c58 -36 60 -52 60 -400 0 -346 0 -347 -62 -387 -25 -17 -76
-18 -754 -18 -720 0 -728 0 -756 21 -61 44 -63 59 -63 392 0 336 3 356 62 392
32 19 48 20 757 20 707 0 724 0 756 -20z"/>
</g>
</svg>
